Coordinates
version=1
nRows=6
nColumns=60
inDegrees=yes

Units are S.I. units (second, meters, Newtons, ...)
If the header above contains a line with 'inDegrees', this indicates whether rotational values are in degrees (yes) or radians (no).

endheader
time	pelvis_tilt	pelvis_list	pelvis_rotation	pelvis_tx	pelvis_ty	pelvis_tz	hip_flexion_r	hip_adduction_r	hip_rotation_r	knee_angle_r_beta	knee_angle_r	ankle_angle_r	subtalar_angle_r	mtp_angle_r	hip_flexion_l	hip_adduction_l	hip_rotation_l	knee_angle_l_beta	knee_angle_l	ankle_angle_l	subtalar_angle_l	mtp_angle_l	L5_S1_Flex_Ext	L5_S1_Lat_Bending	L5_S1_axial_rotation	L4_L5_Flex_Ext	L4_L5_Lat_Bending	L4_L5_axial_rotation	L3_L4_Flex_Ext	L3_L4_Lat_Bending	L3_L4_axial_rotation	L2_L3_Flex_Ext	L2_L3_Lat_Bending	L2_L3_axial_rotation	L1_L2_Flex_Ext	L1_L2_Lat_Bending	L1_L2_axial_rotation	L1_T12_Flex_Ext	L1_T12_Lat_Bending	L1_T12_axial_rotation	Abs_r3	Abs_r2	Abs_r1	Abs_t1	Abs_t2	arm_flex_r	arm_add_r	arm_rot_r	elbow_flex_r	pro_sup_r	wrist_flex_r	wrist_dev_r	arm_flex_l	arm_add_l	arm_rot_l	elbow_flex_l	pro_sup_l	wrist_flex_l	wrist_dev_l
     51.17000000	     -0.31418490	     15.12547236	     93.14988481	      0.40830823	      0.94439771	      0.27176961	     -5.99684712	     -4.57740954	     -2.63412876	      0.30700971	    -17.59036053	     12.21219068	      0.00000000	      0.00000000	     -4.98225915	     -6.47534430	     -2.74404942	      0.28884901	    -16.54982939	     12.31313620	      0.00000000	      0.00000000	     -6.33758568	      0.07933911	     -0.27177367	    -11.76953036	      0.10552101	     -0.28875953	    -10.41201951	      0.19290510	     -0.28875953	     -7.24322667	      0.19290510	     -0.23780196	     -5.88508206	      0.16178831	     -0.22081611	     -3.62129646	      0.12289628	     -0.20383025	    -45.26874074	      0.89749984	     -1.51152364	      0.00000000	      0.00000000	     24.24692745	    -32.12103019	      7.03657358	     94.60190215	     62.84682461	      1.77244701	     38.72826766	     26.31087302	    -28.29701565	     11.02920548	     89.27447628	     60.21862109	      0.99991738	     26.72054097
     51.18000000	     -0.32916941	     15.04345112	     93.30016041	      0.40791157	      0.94439310	      0.27146260	     -5.98600482	     -4.58906241	     -2.78133957	      0.30588296	    -17.52580276	     12.16162163	      0.00000000	      0.00000000	     -4.93530649	     -6.45077796	     -2.62198662	      0.28698540	    -16.44305234	     12.27435261	      0.00000000	      0.00000000	     -6.28537521	      0.08290668	     -0.29919500	    -11.67257030	      0.11026589	     -0.31789469	    -10.32624293	      0.20157931	     -0.31789469	     -7.18355532	      0.20157931	     -0.26179562	     -5.83659942	      0.16906331	     -0.24309594	     -3.59146339	      0.12842245	     -0.22439625	    -44.89580657	      0.93785698	     -1.66403282	      0.00000000	      0.00000000	     25.42531324	    -32.08435223	      7.53988718	     93.77940190	     62.83358400	      1.69093701	     38.74849149	     27.57719170	    -28.22124006	     11.65919603	     88.44538581	     60.14545902	      0.86981322	     26.91923997
     51.19000000	     -0.33437806	     14.98150065	     93.45077394	      0.40755119	      0.94440389	      0.27129810	     -5.96365669	     -4.57936768	     -2.85943935	      0.30566534	    -17.51333405	     12.10039753	      0.00000000	      0.00000000	     -4.87943354	     -6.43655068	     -2.46882926	      0.28591049	    -16.38146461	     12.21945116	      0.00000000	      0.00000000	     -6.24777459	      0.08688042	     -0.32772293	    -11.60274219	      0.11555096	     -0.34820562	    -10.26446887	      0.21124106	     -0.34820562	     -7.14058158	      0.21124106	     -0.28675757	     -5.80168348	      0.17716656	     -0.26627488	     -3.56997840	      0.13457777	     -0.24579220	    -44.62722911	      0.98280871	     -1.82269664	      0.00000000	      0.00000000	     26.58636134	    -31.95699601	      7.92776677	     92.99499861	     62.80940164	      1.59767931	     38.75188757	     28.88989409	    -28.12383829	     12.24522044	     87.60127208	     60.01744848	      0.78123492	     27.11730094
     51.20000000	     -0.33645921	     14.91273253	     93.58707803	      0.40718738	      0.94439876	      0.27117685	     -5.92410058	     -4.57121167	     -2.94429962	      0.30543862	    -17.50034378	     12.03554679	      0.00000000	      0.00000000	     -4.82009485	     -6.42145482	     -2.33579116	      0.28465617	    -16.30959744	     12.16542148	      0.00000000	      0.00000000	     -6.21463485	      0.09180624	     -0.35418534	    -11.54119839	      0.12210229	     -0.37632193	    -10.21002360	      0.22321768	     -0.37632193	     -7.10270618	      0.22321768	     -0.30991218	     -5.77090993	      0.18721128	     -0.28777559	     -3.55104236	      0.14220786	     -0.26563901	    -44.39051530	      1.03853050	     -1.96987262	      0.00000000	      0.00000000	     27.77780871	    -31.79864901	      8.30040008	     92.15430307	     62.78678276	      1.49278742	     38.74477456	     30.22472948	    -28.02951719	     12.88747877	     86.68520608	     59.85493151	      0.73154318	     27.31660856
     51.21000000	     -0.33932356	     14.81725486	     93.70510280	      0.40687374	      0.94435061	      0.27111032	     -5.85791794	     -4.57230331	     -3.05400423	      0.30477461	    -17.46229905	     11.97064613	      0.00000000	      0.00000000	     -4.74529301	     -6.40394937	     -2.24673765	      0.28292289	    -16.21028767	     12.11692479	      0.00000000	      0.00000000	     -6.18041948	      0.09341281	     -0.37302842	    -11.47765701	      0.12423904	     -0.39634269	    -10.15381116	      0.22712390	     -0.39634269	     -7.06360142	      0.22712390	     -0.32639987	     -5.73913753	      0.19048740	     -0.30308559	     -3.53149169	      0.14469644	     -0.27977131	    -44.14611830	      1.05670438	     -2.07467215	      0.00000000	      0.00000000	     28.96477020	    -31.66210984	      8.74720304	     91.18685857	     62.76572684	      1.33873470	     38.72538543	     31.64686944	    -27.93044136	     13.63095444	     85.70058126	     59.61771538	      0.70671983	     27.55815806
     51.22000000	     -0.33485446	     14.71645172	     93.78761382	      0.40657807	      0.94430965	      0.27116313	     -5.75800148	     -4.56952433	     -3.12133011	      0.30458153	    -17.45123628	     11.90166356	      0.00000000	      0.00000000	     -4.65226507	     -6.38254506	     -2.18137287	      0.28143811	    -16.12521607	     12.05556854	      0.00000000	      0.00000000	     -6.15526369	      0.09554403	     -0.38828071	    -11.43094019	      0.12707356	     -0.41254825	    -10.11248271	      0.23230576	     -0.41254825	     -7.03485087	      0.23230576	     -0.33974562	     -5.71577786	      0.19483339	     -0.31547808	     -3.51711767	      0.14799771	     -0.29121053	    -43.96643299	      1.08081320	     -2.15950083	      0.00000000	      0.00000000	     30.18368428	    -31.47628268	      9.14260611	     90.21298204	     62.75246471	      1.13637952	     38.67528992	     33.09455652	    -27.81731973	     14.33632672	     84.67691860	     59.32908168	      0.71821352	     27.81056230
